<?xml version="1.0" encoding="UTF-8"?>
<svg id="Layer_1" xmlns="http://www.w3.org/2000/svg" version="1.1" viewBox="0 0 950 310">
  <!-- Generator: Adobe Illustrator 30.2.1, SVG Export Plug-In . SVG Version: 2.1.1 Build 1)  -->
  <defs>
    <style>
      .st0 {
        fill: #300175;
      }

      .st0, .st1 {
        fill-rule: evenodd;
      }

      .st2, .st1 {
        fill: #4f1e1e;
      }
    </style>
  </defs>
  <polygon class="st1" points="190.77 286.77 193.79 286.77 193.79 295.55 205.27 295.55 205.27 286.77 208.3 286.77 208.3 307.99 205.27 307.99 205.27 298.07 193.79 298.07 193.79 307.99 190.77 307.99 190.77 286.77"/>
  <polygon class="st1" points="216.68 286.77 232.77 286.77 232.77 289.37 219.59 289.37 219.59 295.82 231.79 295.82 231.79 298.26 219.59 298.26 219.59 305.47 233 305.47 233 307.99 216.68 307.99 216.68 286.77"/>
  <path class="st1" d="M250.67,296.5c1.4,0,2.5-.28,3.32-.81.82-.54,1.23-1.51,1.23-2.92,0-1.51-.57-2.54-1.72-3.09-.6-.29-1.41-.43-2.45-.43h-7.29v7.25h6.91ZM240.76,286.77h10.22c1.69,0,3.07.23,4.16.71,2.07.91,3.12,2.58,3.12,5.01,0,1.28-.28,2.32-.83,3.12-.54.82-1.3,1.46-2.29,1.95.86.34,1.51.78,1.95,1.34.43.55.68,1.44.72,2.67l.11,2.84c.03.82.11,1.42.21,1.82.17.66.49,1.1.95,1.29v.48h-3.66c-.11-.19-.19-.42-.25-.71-.06-.29-.11-.84-.15-1.68l-.19-3.53c-.06-1.4-.6-2.32-1.6-2.8-.57-.26-1.47-.38-2.69-.38h-6.8v9.09h-3v-21.22Z"/>
  <path class="st1" d="M272.28,295.75c1.26,0,2.24-.17,2.94-.51,1.11-.54,1.66-1.49,1.66-2.86s-.58-2.32-1.77-2.81c-.66-.26-1.65-.4-2.94-.4h-5.35v6.57h5.45ZM273.28,305.53c1.83,0,3.15-.51,3.91-1.52.49-.64.74-1.43.74-2.35,0-1.54-.7-2.58-2.15-3.15-.75-.29-1.77-.44-3.01-.44h-5.94v7.47h6.45ZM263.91,286.77h9.48c2.58,0,4.42.74,5.51,2.23.65.88.97,1.89.97,3.03,0,1.34-.4,2.45-1.2,3.31-.4.44-1,.86-1.77,1.23,1.14.42,1.98.89,2.54,1.42,1,.92,1.49,2.19,1.49,3.82,0,1.37-.44,2.6-1.34,3.7-1.33,1.66-3.45,2.49-6.36,2.49h-9.32v-21.22Z"/>
  <path class="st1" d="M299.84,299.3l-3.35-9.37-3.56,9.37h6.91ZM294.93,286.77h3.38l8,21.22h-3.27l-2.24-6.36h-8.73l-2.38,6.36h-3.07l8.31-21.22Z"/>
  <polygon class="st1" points="313.9 286.77 316.9 286.77 316.9 305.47 328.08 305.47 328.08 307.99 313.9 307.99 313.9 286.77"/>
  <polygon class="st1" points="350.08 286.77 354.24 304.04 359.24 286.77 362.48 286.77 367.48 304.04 371.64 286.77 374.91 286.77 369.12 307.99 365.97 307.99 360.87 290.4 355.75 307.99 352.6 307.99 346.84 286.77 350.08 286.77"/>
  <path class="st1" d="M393.3,286.19c3.9,0,6.79,1.21,8.67,3.61,1.46,1.89,2.2,4.29,2.2,7.22,0,3.17-.84,5.79-2.52,7.9-1.97,2.46-4.76,3.7-8.41,3.7-3.39,0-6.05-1.09-8-3.24-1.74-2.07-2.6-4.72-2.6-7.88,0-2.87.74-5.33,2.23-7.37,1.89-2.63,4.71-3.94,8.43-3.94M393.61,306.04c2.63,0,4.53-.91,5.71-2.72,1.19-1.82,1.77-3.9,1.77-6.27,0-2.49-.68-4.5-2.04-6.02-1.35-1.52-3.21-2.28-5.56-2.28s-4.15.75-5.59,2.26c-1.44,1.51-2.17,3.73-2.17,6.67,0,2.35.63,4.33,1.86,5.94,1.24,1.61,3.24,2.41,6.02,2.41"/>
  <path class="st1" d="M412.14,286.77v13.12c0,1.54.31,2.81.91,3.84.89,1.54,2.4,2.31,4.5,2.31,2.53,0,4.27-.83,5.17-2.49.49-.91.74-2.13.74-3.66v-13.12h3.03v11.92c0,2.61-.35,4.61-1.09,6.02-1.34,2.56-3.87,3.84-7.61,3.84s-6.25-1.28-7.59-3.84c-.74-1.41-1.09-3.41-1.09-6.02v-11.92h3.03Z"/>
  <polygon class="st1" points="434.6 286.77 438.13 286.77 449.28 303.97 449.28 286.77 452.11 286.77 452.11 307.99 448.76 307.99 437.45 290.82 437.45 307.99 434.6 307.99 434.6 286.77"/>
  <path class="st1" d="M468.77,305.53c1.01,0,1.84-.09,2.5-.29,1.15-.38,2.1-1.11,2.86-2.17.58-.86,1.01-1.97,1.28-3.31.15-.8.21-1.54.21-2.23,0-2.63-.54-4.67-1.63-6.11-1.07-1.46-2.82-2.18-5.25-2.18h-5.3v16.29h5.34ZM460.42,286.77h8.94c3.04,0,5.39,1.03,7.07,3.1,1.49,1.87,2.24,4.26,2.24,7.18,0,2.26-.45,4.3-1.32,6.11-1.55,3.23-4.23,4.82-8.01,4.82h-8.92v-21.22Z"/>
  <rect class="st2" x="484.93" y="298.42" width="7.54" height="2.67"/>
  <polygon class="st1" points="501.79 286.77 504.82 286.77 504.82 295.55 516.3 295.55 516.3 286.77 519.32 286.77 519.32 307.99 516.3 307.99 516.3 298.07 504.82 298.07 504.82 307.99 501.79 307.99 501.79 286.77"/>
  <polygon class="st1" points="527.71 286.77 543.8 286.77 543.8 289.37 530.63 289.37 530.63 295.82 542.82 295.82 542.82 298.26 530.63 298.26 530.63 305.47 544.03 305.47 544.03 307.99 527.71 307.99 527.71 286.77"/>
  <path class="st1" d="M560.97,299.3l-3.36-9.37-3.55,9.37h6.91ZM556.06,286.77h3.38l8,21.22h-3.27l-2.24-6.36h-8.73l-2.4,6.36h-3.06l8.31-21.22Z"/>
  <polygon class="st1" points="575.94 286.77 578.92 286.77 578.92 305.47 590.1 305.47 590.1 307.99 575.94 307.99 575.94 286.77"/>
  <rect class="st2" x="598.09" y="286.78" width="3.03" height="21.22"/>
  <polygon class="st1" points="613.12 286.77 616.65 286.77 627.8 303.97 627.8 286.77 630.64 286.77 630.64 307.99 627.28 307.99 615.97 290.82 615.97 307.99 613.12 307.99 613.12 286.77"/>
  <path class="st1" d="M648.36,286.22c2.07,0,3.87.38,5.38,1.15,2.2,1.11,3.54,3.06,4.03,5.82h-2.95c-.37-1.55-1.1-2.67-2.24-3.38-1.14-.7-2.57-1.06-4.29-1.06-2.04,0-3.76.74-5.16,2.21-1.4,1.46-2.09,3.66-2.09,6.57,0,2.54.57,4.58,1.72,6.16,1.15,1.6,3.03,2.38,5.64,2.38,2,0,3.64-.55,4.95-1.67,1.3-1.11,1.98-2.91,2.01-5.39h-6.91v-2.38h9.69v11.35h-1.92l-.72-2.72c-1.02,1.06-1.92,1.79-2.7,2.21-1.3.72-2.98,1.07-4.99,1.07-2.61,0-4.87-.81-6.74-2.44-2.06-2.04-3.09-4.84-3.09-8.41s1-6.39,3.01-8.48c1.91-2.01,4.36-3.01,7.39-3.01"/>
  <path class="st1" d="M679.24,301.15c.08,1.2.37,2.17.89,2.92.98,1.42,2.74,2.12,5.24,2.12,1.12,0,2.15-.15,3.07-.46,1.78-.6,2.68-1.68,2.68-3.21,0-1.15-.37-1.98-1.12-2.47-.77-.47-1.96-.91-3.58-1.26l-3-.64c-1.95-.43-3.33-.89-4.15-1.4-1.4-.89-2.1-2.21-2.1-3.98,0-1.9.69-3.47,2.06-4.7,1.38-1.21,3.32-1.83,5.84-1.83,2.31,0,4.27.54,5.9,1.61,1.61,1.07,2.42,2.8,2.42,5.15h-2.81c-.15-1.14-.47-2.02-.97-2.61-.91-1.11-2.46-1.66-4.64-1.66-1.77,0-3.03.35-3.81,1.06-.77.72-1.15,1.55-1.15,2.49,0,1.05.44,1.8,1.35,2.29.6.31,1.93.69,4.01,1.15l3.1.68c1.49.33,2.64.79,3.46,1.35,1.4.98,2.1,2.42,2.1,4.31,0,2.35-.89,4.03-2.67,5.04-1.78,1.02-3.84,1.52-6.19,1.52-2.75,0-4.9-.68-6.45-2.03-1.55-1.33-2.32-3.15-2.29-5.44h2.81Z"/>
  <path class="st1" d="M699.64,286.77h9.94c1.95,0,3.55.52,4.75,1.6,1.2,1.06,1.79,2.55,1.79,4.49,0,1.66-.54,3.09-1.6,4.32-1.07,1.23-2.73,1.84-4.94,1.84h-6.94v8.97h-3v-21.22ZM713.12,292.87c0-1.57-.61-2.63-1.81-3.18-.66-.3-1.57-.44-2.72-.44h-5.94v7.34h5.94c1.34,0,2.43-.28,3.27-.82.83-.55,1.26-1.52,1.26-2.9"/>
  <path class="st1" d="M733.09,296.5c1.4,0,2.5-.28,3.32-.81.83-.54,1.23-1.51,1.23-2.92,0-1.51-.57-2.54-1.7-3.09-.62-.29-1.43-.43-2.46-.43h-7.29v7.25h6.91ZM723.18,286.77h10.22c1.69,0,3.07.23,4.16.71,2.07.91,3.12,2.58,3.12,5.01,0,1.28-.28,2.32-.83,3.12-.54.82-1.3,1.46-2.29,1.95.86.34,1.52.78,1.95,1.34.43.55.68,1.44.72,2.67l.11,2.84c.03.82.11,1.42.21,1.82.19.66.49,1.1.95,1.29v.48h-3.66c-.11-.19-.19-.42-.25-.71-.06-.29-.11-.84-.15-1.68l-.17-3.53c-.08-1.4-.61-2.32-1.61-2.8-.57-.26-1.47-.38-2.69-.38h-6.8v9.09h-3v-21.22Z"/>
  <path class="st1" d="M759.23,299.3l-3.36-9.37-3.55,9.37h6.91ZM754.32,286.77h3.38l8,21.22h-3.27l-2.24-6.36h-8.73l-2.4,6.36h-3.06l8.31-21.22Z"/>
  <polygon class="st1" points="771.57 286.77 775.06 286.77 781.41 296.98 787.75 286.77 791.25 286.77 782.91 299.45 782.91 307.99 779.91 307.99 779.91 299.45 771.57 286.77"/>
  <path class="st0" d="M76.25,243.04c-14.46,0-27.47-3.2-39.07-9.59-11.6-6.39-20.69-15.24-27.29-26.56-6.61-11.31-9.9-23.98-9.9-38.01s3.29-26.7,9.9-38.02c6.59-11.32,15.72-20.17,27.39-26.56,11.66-6.39,24.72-9.59,39.16-9.59,10.83,0,20.83,1.82,30,5.43,9.16,3.61,16.95,8.88,23.34,15.82l-9.8,9.81c-11.38-11.54-25.76-17.3-43.12-17.3-11.52,0-22.02,2.64-31.45,7.91-9.45,5.29-16.84,12.51-22.18,21.68-5.36,9.16-8.04,19.43-8.04,30.83s2.68,21.66,8.04,30.83c5.35,9.16,12.74,16.38,22.18,21.67,9.44,5.27,19.93,7.91,31.45,7.91,17.5,0,31.88-5.84,43.12-17.5l9.8,9.79c-6.39,6.94-14.21,12.26-23.44,15.95-9.23,3.67-19.27,5.52-30.1,5.52M726.33,207.7c.49.02.72-.06,1.01-.21-.11.26-.03.14-.18.38-.22.17-.54.32-.79.49-.21.16-.6.45-.86.6-1.91,1.05-4.27,1.92-6.45,1.15-1.4-.49-5.73-3.58-7.38-4.72-2.72-1.86-5.39-2.46-8.43-3.99-3.21-1.63-3.67-3.8-5.61-5.79-.03,1.24.98,4.09,1.37,5.19.63,1.78,1.08,3.47,1.61,5.27,1.02,3.41,1.82,5.78,3.69,8.59.38.58.29.61.8,1.07l-.08-.46.31.06c-.17,1.01.97,1.86,1.57,2.42.66.65,1.58,1.31,2.59,1.83,1.11.57,2.21.92,3.55.98,1.54.08,10.23-8.78,1.61-.11,3.55-.07,7.21-4.27,9.16-7,.32-.46.52-.57.77-.96.85-1.34,1.57-2.12,2.12-3.01.43-.71.77-1.37,1.29-2.12l.37-.51c.11-.19.23-.35.31-.52.32-.65.05-.43.6-1.21l.06-.74c.48-.14-.3-.23.11.11.01,0,.15.55.61-.43.3-.66.11-1.06.14-1.67l.17.89c.09-.12.08-.05.19-.32.06-.16.11-.4.14-.57.05.12.06.11.09.34,0,.11-.01.32-.01.35.44-.86.15-.91.29-1.78.2.4.12.49.17.95.19-.57.28-.57.43-.94.4-1.01.42-3.32.19-4.59l-.09-.44c-.21-.66-.54-1.12-1.24-1.44-.19-.84.21.34.05-.21l-.57-.12c-1.37,4.19-3.09,6.93-6.15,9.44-.46.38-.81.66-1.38,1.03l-1.55,1.05c-.31.01.05-.08-.25.06-.17.08-.03,0-.25.14-1.51.92-3.07,1.26-3.87,1.8,1.58,2,6.45,2.8,7.14.77l.12.28c.12.17-.11.19.2.08.52-.19.97-1.72,1.12-2.23l.06,1.43c.54-.09.29-.08.6-.35.4-.34-.12-.07.54-.28M719.6,194.55c-.12.2-.23.31-.35.45l.35-.45ZM719.17,195.09l-.03.05s-.2.34-.21.4c-.09.43-.06.25.05.52.65-.15.42-.4.86-.8-.26.48-.32.43-.46.95l.56-.29s.06-.05.09-.08c-.34.86-.29.32.11.68l1.37-1.52.08-.11c-.35.57-.83,1.12-1.17,1.71.91.4.48.15,1.05-.48-.21.44-.78,1.06.02.96.29-.05.61-.68.77-.89l-.56,1.09,1.21.95.14.28c.7.44.98,1.09,1.37,1.78.29.54.2.12.29.2-.11.43.05,1.14.17,1.52,1.49-1.03,3.22-4.44,3.85-6.03,1.11-2.8,1.61-5.36,2.18-8.47-.74-.23-.64.06-1.78.85-1.06.75-5.99,3.55-7.05,3.93-1.15.42-4.48,2.4-4.87,3.36l1.32.26.66-.82ZM705.25,197.58c.75-.02,1.69-.35,2.27-.48.14-.05.26-.03.54-.09l1.29-.45-.08-.52c-.06.72.06.39.49.6.02-.2.02-.32.02-.4.03.11.06.11.34.11.06-.08.23-.06.03-.63-.11-.35-.15-.31-.2-.72.12.17.11.2.24.43l.29.44c-.06-.41-.15-.6-.3-.91-.16-.34-.23-.55-.39-.89-.78-1.8-1.89-3.06-3.52-4.32l-6.71-4.22.77,6.3c.16,1.06.29,2.12.57,3.09.18.68.52,2.47,1.21,2.72l-.11-.86c.42.66-.07.18.58.54l-.05-.68c.09.26.03.09.12.32,0,.02.01.06.03.09l.48.34s.08-.02.11-.02.08-.02.11-.03c-.2-.56-.51-.66-.92-2-.21-.77-.34-1.48-.55-2.29-.33-1.26-.75-3.54-.35-4.95-.32,1.26.25,3.89.51,5.08.14.65.96,3.4,1.32,3.93.35.51-.17.17.68.46,0-.77-.15-.89-.2-1.5l.32.57.29-.25.26.51c.21.46.18.74.51.66M709.63,195.67c-.11-.26-.11-.37-.26-.52l.19.52s.06.07.07.11v-.11ZM710,178.99c-.03,1,.35,2.73.77,3.15.4-.32.8-.86.66-1.57-.15.22.11.19.34.34.12-.55.63-1.61.86-2,.29-.34-.08-2.06.03-2.95.12.68.23,1.44.37,2.12.35-.6-.15-1.66.09-2.78-.11.77.06,1.29.22,1.93.09-.09.09-.06.2-.26.14-.26.05-.05.12-.28l.97-1.37c.34-.28-.63-2.6-.74-3.04-.31-.39-.35-.62-.58-1.05-1.33-2.37-2.72-3.89-4.05-6.74-.82.47-1.89,1.17-2.55,1.86-.89.96-1.25,1.68-1.44,3.26,1,0,2.21.51,2.99,1,.89.55,1.43,1.21,1.72,2.09.45,1.25.19,4.7.03,6.29M717.79,164.28c.63-.11,1.47-.97,2.8-.05.88.6,1.14,2.32-.54,1.75.26-.43.17-.06.6-.46-.17-1.86-2.27-1.26-2.73-.19-.57,1.35,1.92,2.12,2.92,1.74,1.24-.46,1.23-2.52.44-3.43-1.01-1.17-3.01,0-3.49.63-.11.08-.06.03-.25.17,0,.02-.26.25-.28.28-1.46,1.61-1.18,3.95-.68,5.8.23.91,1.58,5.24,2.12,5.7l.83-.86c-.18-.78-.32-1.74-.24-2.56.21.54.09,1.33.34,1.9.11.26,0,.08.17.29.02-.74-.06-1.33-.08-2.09-.02-.6.11-1.38.08-1.82l.06,1.48s-.11.18.14.46l.16,1.61c.34-.33.29-.51.32-.69l.12-1.91c-.09.58-.26,2.26-.03,2.78l.14-.2c.52-.84.31-.77.55-1.7l.06.74c.43-1.12.12-1.35.37-2.23.02.43-.11.92.09,1.41.43-.89.26-.86.54-1.84l-.02.86c.51-1.06,1.03-1.77,1.37-3.01.22-.83-.03-1.2-.43-2.17-.14-.38.06-.3-.33-.46l-.23-.54c-.52.51-.35,1.24-1.07,1.69-1.3.8-3.76.09-4.39-1-.54-.96.12-1.44.57-2.11M713.8,147.14c.08-.09.14-.02.16-.46-.12.32.26,1.24.46,1.6l.41.46.85-1.37c-.2-.2-.34-.45-.4-.71,0,.66.32.69.44.8.46-1.4,1.35-2.15,2.01-3.46.02-.05.03-.12.03-.21l-3.96,3.35ZM707.11,172.08c-.44,3.35-3.64.34-2.01.15.22.52-.28.58.4.88,1.26.54,1.2-1.63.43-2.52-2.32-2.68-5.99,4.08-.94,4.31.65.02,1.43-.28,1.83-.68.86-.86.42-1.44.29-2.15M700.95,197.27c-.09-.66-.42-1.41-.58-2.12-.21-.88-.32-1.47-.49-2.32-.11-.56-.35-3.12-.55-3.45-.03-.05-.65-.8-.72-.87-1.02,1.38-1.77,3.56-1.19,5.29.4,1.15,1.84,3.05,3.54,3.47M720.26,186.53c.54,1.72.65,1.05.84,1.75.06.19.05.66.26.83l.15,2.72.44-1.61c.12.23.12.02.12.38,0,.19-.03.25-.08.43l.29-.6c.03.16,0,.34-.02.48,0,.69-.03-.32.02.26l.05.23c.31-.29.33-.81.37-1.29.05-.52.08-.95.19-1.46.07.65-.22,1.78-.06,2.34.38-.09-.12.29.43-.48.6-.88.77-1.23,1.02-2.38v.43c.77-1.52,2.03-3.56,2.35-5.35-2.84,2.54-1.54,1.38-4.72,2.54-.21.08-.61.25-.82.34l-.84.44ZM725.34,178.69c-.43-.31-.29-.31-.8-.14.34.46.89.3,1.14,1.12-.77-.68-1.15-1.78-2.73.26-1.12,1.46-2.46,4.15-2.73,5.95.86-.35,1.27-.58,2.26-.86.69-.2,1.8-.66,2.24-.96.74-.46,1.11-.82,1.58-1.73.97-1.82.79-2.89.74-2.77l-.06-.02c-.42-.2-.72-1.12-1.57-1.23-.25.26.02-.17-.05.17-.14.8.4-.32-.02.2M703.1,174.88c.2.8,2.28,3.44,3.31,4.27.47.38,1.01.8,1.54,1.17l.11-.54c.08.31.6,1.05.86,1.26.63.02-.23.21.19-.11.58-.46-.08.14.41-.06-.35-1.05-.93-1.4-1.43-2.8.31.3.11.12.31.41l.06-.44c.31.25.58.82.74,1.17.23-.72-.21-.84-.51-1.38.17-.05.37.2.57.35.11-1.78.54-3.33.23-5.04-.25-1.37-1.29-2.37-2.94-2.77.31.54,2.46,2.24,1,4.03-.91,1.1-2.75,1.29-4.44.47M716.28,137.05c-.21-1.61-2.29-4.21-3.4-5.38-1.92-2.01-1.49-1.58-1.58-.2-.32,4.81-.15,5.25-1.06,10.71-.34,2.01-.65,3.93-.25,5.76.32,1.49,1.44,3.24,3.21,3.58l.66-1.09c.26-.43.71-1.03.63-1.58-.03-.2-.58-1.47-.69-1.7l2.47-10.09ZM717.74,143.45c-.14-.83-.66-2.29-.75-2.78-.15-.86-.48-3.03-.71-3.62l1.46,6.41ZM721.77,126.87c.77-.83.89-.75.95-2.21l.25.87c.29-.74-.11-1.32-.05-2.12l.4,1.68c1.06-.98.51-.55.42-2.32.08.46.22,1.02.42,1.49,1.12-1.46-2.43-4.75-3.7-8.36-.29-.83-.88-2.23-1.37-2.86-1.03.69-1.63,3.52-.97,5.7.42,1.38,1.86,1.84,2.83,4.43.55,1.47.51,2.06.83,3.7M727.65,171.31s.12.09.14.14l.65-.62c.43-.52.35-.81.98-.49.37.17.37-.17.23.57.02-.05.11-.32.11-.34.02-.03.03-.06.05-.11v1.5s.06,0,.06.02c0,.49,0-.15.22.05-.12.66-.16,2.01.18,2.66l.46-2.21c.19.78-.01,1.54.02,2.36l.37-.66c1.63-4.41,0-10.79.12-11.46l-.11-.19c-.28-.54-.51-1.95-.95-2.47-.37.17-.6.38-.92.52-1.54.72-.28-.06-1.83,1.05-.35.23-.61.29-.95.47-.8.43-2.97,2.4-2.01,3.66-.09.68.12,1.44,0,2.29-.4,2.73-2.14,4.62-2.58,5.84.32-.34.49-.69.87-.95-.23.8-.57.77-.86,1.47.35-.2.49-.49.72-.82v.09l-.14.57c.48-.15.54-.78.91-1.17-.24,1.09-.57.66-.29,1.12.01-.01.05-.07.05-.06l.44-.15c.57-.25,1.23-1.92,1.28-2.5-.12,1.09-.62,1.61-.66,2.03-.05.35-.06.06.03.28.64-.29.91-1.97.97-2.64l-.39,2.29c.52-.46.79-1.86,1.05-2.74l.09.8c.2-.52.01-.24.32-.68l-.61,2.09c.92-.19.75-.48.98-1.49l-.03.97c.31-.32.31-.49.44-1.01.17.69-.23.44.12.52.17.05.35-.4.48-.6M726.71,124.39s.08.01.08.06l.14.09c.05.07.09-.05.01.26-.07.37-.17.21-.2.84.29-.23.28-.14.42-.54-.19,1.18-.35.44-.2,1.91.25-.23.54-.66.75-.96-.26.83-.78.98-.57,1.84.35-.4.52-.83.8-1.35.35-.08-.34-.26.06.12.24.23-.17.17.19.08.05-.02.43-.31.6-.44,2.18-1.84,2.41-1.43,4.33-4.19,1.75-2.49.21-.43,1.03-5.27-1.35.31-5.12,2.5-6.44,4.45-1.05,1.54-.68,2.05-1,3.09M714.33,171.98c.57.57.98,2.52,1.09,3.52.08.78-.11,1.49-.07,2.24.01.7.11,1.44.15,2.1l.28-.52c.26-.34-.03.31.28-.37.23-.51.28-.81.26-1.3-.02-.01-.05,0-.05.02l-.11.03c-.11-.01-.05.39-.07-.09l.42-1.4c.07.57-.03,1.23.14,1.91l.92-1.01c.52-.51.38-.84-.23-2.46-1.47-3.86-3.81-9.48,1.3-11.65,2.12-.91,2.96-.06,3.75,1.4.23.41.55.7.84,1.23.23.26.58.68.65,1-.11-1.34-1.93-7.28-2.69-7.9-1-.38-6.48,4-7.38,9.08-.43,2.47.35,3.32.52,4.18M723.7,144.85l-.34,2.03,1.15-1.64c.52-.82.24.11.7-1.89-.01.03-.11-.16-.12.32-.03.69-.06.31.16.65l.4-2.2c-.08.71-.26,1.43-.02,1.91l.32-.78c.03.32-.03.12.09.34.3-.51.15-.48.21-1.03.05.26.06.24.25.49l.98-1.21c.52-.57.61-.74.61-1.66l.17.69c1.23-4.89-.83-9.13-1.84-13.18-.35-1.41-.26-2.95-.6-4.36-3.12,3.41-4.12,4.33-6.58,8.7-.74,1.33-2.3,4.21-2.1,5.88.15,1.28.74,4.73,1.35,5.41.6-.38.66-.44.45-1.06-.14-.43-.35-.83-.54-1.24.17.44.51,1.03.55,1.6.91-.61.66-.66.45-1.91.11.49.11.89.24,1.38l.48-.48c.46-.23.28-.41.86-.51.28.46.2,1.19.38,1.69l.6,1.68.11.7c.34-.34.2-.06.26-.6.06-.54.05-1.7.45-2.15-.22,1.21-.52,3.01-.14,4.03l.8-2.83c-.11,1.02-.88,2.98-.49,3.72l.7-2.94c.03.16.09-.12.03.46M697.78,163.84c.6.52,1.44,2.61,1.72,3.47.8,2.61.68,5.51,1.66,8.13.66,1.74.83,2.01,3.26,2.4l-1.46-2.12c-.26-.43-.98-1.69-1.17-2.23-.57-1.74,1.26-4.44,2.96-3.95.16-.98-.01-1.51.58-2.46.42-.66.95-1.09,1.32-1.63-.57-.83-.58-.75-1.8-1.2-2.5-.94-4.15-1.81-7.16-1.75-.07.84.33.78.08,1.33M707.74,190.09c-.07-1.21-.86-2.64-.8-3.75l.65,2.23c.51-.57-.52-2.14-.26-3.06-.06.54.39,1.97.66,2.52l.31-1.05c.15-.68,0-.63-.02-1.27.09.18.19.37.29.52.57-1.63-.46-2.1.32-3.24-.06.49.08,1.18.31,1.57.32-.45.74-1.2,1.07-1.74-.15-.11-.31-.12-.51-.26-.26-.18-.49-.61-1.54-1.41-.79-.58-1.46-1.05-2.18-1.64-.4-.34-.56-.57-.91-.88l-4.67-1.33c.12.21.19.46.29.7.8,1.86,2.1,3.87,2.49,6.17.83,5.07-1.55,1.57,2.87,4.66.29.21.56.35.83.58.31.25.43.42.78.68M705.63,157.33c-.26-1.32-.65-1.47-.84-3.66-.12-1.26-.09-2.72.3-4.18-.32,2.78-.46,5.32.91,7.87.32.6.66,1.72,1.38,1.91.34-1-.54-1.37-.74-3.03.16.37.31.75.46,1.18.09.23.14.37.21.54l.4.58c.49-.63-.52-1.51-.46-2.6.17.42.12.48.44.83l-.21-2.01c.09.78.49,2.33.81,2.87.63-.98-.3-1.21-.17-2.44-.03.46.31,1.29.6,1.64.66-.46.32-.55.57-.93.25-.43-.25.49.23-.21-.11-.74-.43-1.09-.28-1.94-.03.37,0,.51.07.86l.35.88c.48-.57.94-1.6,1.65-2.14.91.21.41.33,1.1.72l.57-2.15c-4.19-1.63-1.55-1.77-4.93-4.29-.41-.31-.81-.48-1.18-.82-.51-.46-1.41-1.69-1.72-1.86-1,3.98-2.01,10.17.46,12.37M722.82,119.07l.54-2.15c-.17.52-.37,2.17-.28,2.63.28-.37.37-1.23.52-1.77-.05.51-.15.95-.23,1.43-.06.48-.11.32.03.69l.58,1s.07.14.07.16l.74.91c-.01.52.17.81.29,1.14.29-.43.17-.78.33-1.47l.09.74.43-1.63c-.09.48-.22.94-.06,1.38,1.07.34.23-.8,2.75-2.87,2.67-2.19,2.24-.01.46-6.43-.14-.46-.33-1.46-.37-1.95-.07-.66.02-1.58-.12-2.18l-4.35,4.29c-.61.72-1.49,1.75-1.78,2.77-.3.98-.46,1.9.03,2.69l.2.34c.03.06.06.21.12.32M709.55,224.06c.09.37.12.4.41.77.22.31.29.37.4.71l-1.23-1.24c.17,2.78.2,1.3-.42,4.53-.3,1.64-.61,3.27-.92,4.92l-1.7,9.39c.52-.65.83-2.27,1.51-2.8.12.82-1.55,3.1-1.58,4.18.94.32,1.63.25,2.29.11,1.08-4.29,2.24-12.01,3.26-17.17.3-1.57.4-1.6,1.12-2.8.71-1.17,2.38-3.27,3.33-3.73-1.72-.19-3.04,1.35-8.34-1.94l-.8-.72.54,1.37c.57.91.61,1.35.83,1.55.68.65.49.14.52.08,0,.89.02.2-.07.29l-.25.06c.09.22.15.37.23.65.09-1.04.12-.32.4-.52-.75,1.49.05.74-.05,1.43l-.17.6.69.31ZM707.15,165.08l.2-.11s.06-.03.09-.05l1.25-.87c.03-2.17.66-4.38,1.46-6.2-.35,1.61-1.3,3.58-1.29,5.95.03.01.07,0,.09.03.06.32.06.02.19.03.11.03.26.01.42.07.38.17.26.21.46.52l.05-.84c.06.19.05.19.09.38.02.05.05.17.06.22.12.37-.02.07.12.3l.09-1.17c0,.29.12,2.11.23,2.43.2.63.25.31.25.31.32.17-.4-.51.14.05l.28.77c.21.49.03.23.38.51,0-.43-.2-1.55-.29-1.93.51,1.73.19,1.93,1.03,3.13l.62.95-.19-2.09c.2-.05.19.06.29.05l.44-1.65c.65-1.73-.19-1.44.37-2.8l.02,1.23c.09.35.02.14.14.38.37-.69-.02-1.61.21-1.93l.06,1.2.74-1.05c.84-1.14-2.06-7.42-3.64-8.88-1.06,1.6-6.62,8.76-4.35,11.04M731.51,161.12c.05-.26.11-.56.35-.74l2.29-3.5c.37-.63.32-.54.68-1.38.61-1.51,1.37-4.99.72-6.25l-3.01,1.54c-.6.28-1.05.66-1.51.84-.95.4-.66-.01-1.44.91-.78.91-1.63,1.72-2.44,2.56-.43.44-.83.83-1.25,1.23-.46.48-.7.65-.69,1.06.03.82.05.3.2.57.34-.43.66-.94.98-1.49l-1.15,1.95c.61-.29,1.66-1.37,2.06-2.09.14.28.08.31.03.66-.11.66-.98,1.47-1.71,2.35-1.24,1.5.09,1.86-2.01,3.17l-.17.11c.09.4-.01.35.33.66.51-.48,1.47-1.84,1.93-2.47.6-.83,1.3-1.89,1.89-2.58l-2.09,3.31c-.28.35-.52.6-.74,1.04.69-.77.79-1.18,1.11-1.15.19.01.02.15.32.09.52-.09.22-.21.57-.51l.41-.16c.6-.15.75-.44,1.03-.61l.19-.08c.38-.17.35-.15.51-.61.02.03.03.05.03.09-.02.41.34.2.7-.03,1.12-.69.94-.25,1.91-1.29.29-.33.4-.68.69-1.09.11.47-1.47,1.7-1.43,2.42.66-.14,1.26-.84,1.7-1.43.39-.51,1.11-1.43,1.21-1.98-.14.77-.66,1.61-1.12,2.12-.42.46-1.37,1.2-1.63,1.58.12.42.26.88.54,1.19M731.37,177.92c-.08.34.2,2.66.29,2.95l.38-.77c-.11.94-.34.77-.29,1.78.03.66-.01,1.25-.05,1.89l.46-.63c-.11.72-.58,1.34-.54,1.93.06.98.35-.6,0,2l.46-.75c-.2.98-.57,1.41-.77,2.66.23-.14.06.06.34-.29l1.2-2.95c-.19,1.75-1.63,3.73-2.24,6.62l.48-.2c1.61-2.23,1.58-.86,4.22-6.08.97-1.95,4.03-9.4,3.19-12.14-.54.12-4.44,2.29-5.44,2.84-.57.33-1.09.83-1.7,1.14M698.58,187.53c-.08-.6-.32-.71-.4-1.32l1.01,1.84c.03-2.12-1.68-3.96.94-2.8-.02-.6-.19-.4-.23-.94.11.34.37.83.52,1.17.46-.03.17.05.42-.17.01-.02.05-.06.06-.09.01-.02.03-.06.06-.09l.19.54.12-.64c.05.43.2,1.01.43,1.26.21-.28-.05-.6-.03-1.28.23.51.32,1.24.66,1.63l-.23-2.11c.05.31.38,2.01.63,2.33.15-4.44-2.78-8.71-3-9.8-.15-.77.72-.32,1.37-.17-.02-.05-.02-.15-.05-.14l-.42-.98c-.55-1.28-.02-1.12-1.89-2.52-1.17-.88-2.7-1.95-4.5-2.21-.06,1.28.54,3.01.74,4.29.54,3.47,1.49,10.08,3.59,12.2M728.8,133.45c.44-.12.49-.17.94-.37-.34.34-.56.35-.91.46l.17.92s.03.12.03.15l.15,1.24c4.44-2.18,9.17-12.87,9.77-16.78-.37.06-3.58,1.69-4.26,2.29-1.14,1.01-1.28,2.09-3.43,3.81-4.57,3.62-4.18,2.73-3.27,5.82.23.75.43,1.81.8,2.44M716.76,136.03c.57-1.98,2.86-5.94,4.04-7.88.43-.72.28-2.01.09-2.86-.75-3.29-2.07-4.36-4.07-6.59l-1.63-2.05-1.35,11.02c-.09,1.84.06,3.13.75,4.56.6,1.25,1.06,1.74,1.58,2.74l.58,1.06ZM723.7,150.46c.61-.12.34-.09.78-.42-.4.43-.68.23-.65,1.01.66-.15.94-.61,1.34-.88-.46.43-1.07.77-1.11,1.52.39-.12.28-.25.8-.46-.68.97-.41.25-.58,1.37.49-.11.18-.02.61-.31-.49.69-.46.46-.28,1.35.09.43.07.95.49,1.06h.19c-.2.26-.28.22-.28.46-.02.2.01.06.07.12l.03.03.11.06c-.26.35-.17.41-.09.8,4.64-3.96,8.57-8.47,8.72-15.18.03-1.44-.06-5.38-.68-6.1-.93,1.14-1.68,2.8-2.52,4.05-.78,1.15-2.12,2.69-2.98,3.63-.11.12-.23.26-.34.35-1.15,1.06-3.23,3.85-3.95,5.25-.37.72.31,1.38.29,2.26M723.26,174.67c-1.57.35-2.26.34-3.37,1.19-1.6,1.18-4.13,3.26-3.66,5.61l.34-1.01c-.15.95-.38,1.32.15,1.95l.66-2.18c-.12.96-.52,1.75-.37,2.61l.33-.52c.05-.17.07-1.12.32-1.81l.11.2c.21.85-.58,2.11,0,2.91.21.29.72.69,1.03,1.03.29.34.45.8.77,1.06.74-2.43,1.32-3.8,2.64-5.82,1.24-1.92,3.76-2.78,4.93-1.35,1.1,1.34.35,4.53-.37,6.36-.88,2.18-2.49,4.92-2.7,5.58.74-.14,1.37-.46,1.63-1.2.29-.78.35-1.69.65-2.46-.06.97-.23,1.46-.46,2.31-.05.2-.12.32-.03.55.48-.46.8-2.63,1.05-3.41l-.55,3.09c.42-.2.35-.23.83-.37.29-1.06.03-2.03.33-2.9l-.02,2.53c.3,0,.15-.01.42-.15l.38-.28c.34-.32.31-.66.49-1.17v.89c.29-.29,1.28-.96.42-2.31.44.44.15.91.56.03-.06.54-.05.86.09,1.29l.71-.72c.57-.97.6-2.34.58-3.44-.09-4.41-.78-4.38-1.54-7.5-.29-1.16-.37-2.61-.57-3.89-.35.42-2.09,1.74-2.54,2.01-1.24.78-1.64.89-3.22,1.3M713.79,156l.23-.17c-.02.19.01.38.01.4l.48,1.23c-.25-4.9.11-3.81,1.32-7.85-.31,1.6-1.54,3.9-1.17,6.82.08.56-.01-.28.09.42.24,1.63.44.2.29,2.09.38.3-.23-.37.29.06.03.49.07.86.15,1.29l.12-.19c.35-.92-.16.77.07-.2.08-.31-.03-.8.11-1.3.2-.75.35-1.14.34-1.89.14.52-.31,4.07-.22,5.15.2-.17.17-.16.37-.4.98-1.28.42-.6.66-2.12.06.4-.03.87.15,1.28.51-.51.29-3.2.58-4.27,0,1.11-.33,2.84.01,3.73.29-.51.11-2.46.33-3.44.05.8-.16,1.11.07,1.69l.26-2.03c-.03,1.14-.11,2.1-.03,3.24.65-.44.96-.3,1.19-1.29l.15.51.48-.35,1.52-.54.11-1.29c-.14,2.72.14,1.69.43,2.43.11.26.07.38.23.77.09-.4.05-.37.06-.77v-.34s.06-.2.06-.2c.01-.03.03-.08.05-.09,0-.03.03-.06.05-.09-.06,1.32-.02,2.64.65,3.78,2.77-1.4.7-8.28.21-10.32-.38-1.55-.84-3.38-1.34-4.87-.44-1.32-1.41-3.36-1.56-4.75-2.31,1.83-5.49,6.93-6.87,9.72-.35.71-.55,1.51-.68,2.32-.12.91-.06.57.28,1.11.02.01.03.06.05.07.24.42.06.34.4.66M711.1,195.35s-.03-.26-.02-.28c.05-.23.02-.11.09-.23.08.51.21.69.33,1.11.17-.14.35.37.17-.58.24.54-.02.29.44.56-.03-.51-.15-.77-.14-1.31l.25.85c.17.35.14.12.29.12.32,0,.08.31.72.08.03-.47-.06-1.05-.18-1.57-.12-.61-.03-.28-.28-.64-.23-.35-.23-.19-.32-.69.29.31.05.06.21.31.91,1.3.21,1.9.86,2.63.43-.42-.09-.92-.06-1.44.03-.92-.06-.23.19-.49.06.48.08,1.71.51,1.88.02-.79-.6-2.01-.46-2.95.26.61.33,1.65.54,2.32.23.74-.06.44.55.58.37-.4-.01-.66.02-1.55.29.49.15.68.34,1.3l.08.2c.47.06,1,.11,1.35-.28.37-.37.35-.54.42-.92.12.37-.06.48.35.19.28-.19.21-.26.23-.58.05-.51-.12-.83-.11-1.32l.2,1.47c.44-.11,1.68-1.12,1.68-1.12l-.25-3.9c.6,1.17.08,2.18.43,3.52l.07.21c.29-.35.17-.82.35-1.44v.91c.09.45.02.16.11.33.37-.42.11-.22.28-1.19,0,.05.01.23.01.26.06.23.05.17.11.32l.16-.64c.06.41-.09.43.15.38,1.01-4.61-4.68-7.93-5.64-10.74l-.58-4.44c-.57.8-1.4,3.22-2.46,4.75-1.61,2.31-4.84,7.24-3.26,9.99.4.69.88,1.21,1.25,1.92.38.74.68,1.51,1.03,2.15M699.87,197.58c.28.35.54.78.77,1.09.32.41.69.64.97,1.03.2-.17-.05.12.11-.19l.12-.33c.06.57.21.75.61,1.09.29-.35-.37.57.09-.43,0-.02.03-.08.05-.09l.42.87c.25-.01,0,.12.3-.19.02-.01.03-.06.06-.07.06.58-.01.43.51.63.01.02.06.02.07.03.02,0,.06.02.08.03.02,0,.06.02.08.03,0,0,.21.14.34.2l-.17-1.24c.07.66.28.98.55,1.44.03,0,.25.2.29-.32.28.84.63.68,1.63,1.06,1.92.75.49.11,1.66.77.01-.02.03-.09.03-.08,0,.02.03-.05.05-.06l.12-.35c.17.7.14.63.89.91-.06-.54-.2-.77-.23-1.21.16.34.14.51.4.82.77.89-.06.66,1.06,1.12.03-.61-.09-.69-.17-1.24.11.52.35,1.32.77,1.63l-.16-.84s.06-.03.06-.01c0,.01.26,0,.33-.26.11.55.51,1.63.87,1.95.22.19,1.71,1.17,2.01,1.29-.08-.51-.42-1.06-.32-1.49.15.95.63,1.81,1.54,2.26-.09-.35-.38-.98-.32-1.34l.43,1.31,1.2-.28c1.66-.51,3.29-1.49,4.72-2.42.63-.42,1.03-.72,1.77-1.3,2.12-1.66-.84-5.29-4.05-6.65-3.15-1.34-7.28-.09-9.82.52-3.59.87-5.44,1.86-9.71.34M781.77,2.88c-1.89,3.26,1.87,7.39,4.47,3.81,2.35-3.24-2.26-7.67-4.47-3.81M821.57,96.84c-2.41,3.26,1.47,7.24,4.07,4.22,2.67-3.12-1.35-7.88-4.07-4.22M815.09,80.95c-2.52,3.03.77,7.33,3.77,4.58,2.9-2.67-.8-8.11-3.77-4.58M788.29,18.56c-2.04,3.58,2.03,6.78,4.39,3.7,2.57-3.36-2.01-7.9-4.39-3.7M771.3,20.87c-.86,1.58-1.55,3.63.41,5.38,1.14,1.03,3.58,1.29,5.01-1,2.5-4.05-2.81-9.16-5.42-4.38M801.84,93.69c-2.84,4.95,3.24,8.56,5.62,4.16,2.21-4.1-2.91-8.88-5.62-4.16M786.26,55.54c-.74,1.05-1.14,1.2-1.07,2.68.17,3.9,3.9,5.22,6.1,2.35,2.86-3.73-1.95-9.36-5.03-5.03M794.4,74.44c-3.41,4.19,1.49,9.23,4.76,5.5,3.14-3.58-1.46-9.57-4.76-5.5M778.36,37.02c-3.07,3.82,1.65,9.17,4.99,5.24,3.1-3.66-1.47-9.57-4.99-5.24M783.65,91.86c-3.46,5.78,3.18,10.11,6.34,5.47,3.32-4.82-3.07-10.94-6.34-5.47M768.84,55.87c-3.84,5.65,2.52,10.51,6.01,5.93,3.55-4.66-2.63-10.9-6.01-5.93M776.6,73.29c-4.05,4.32,1,11.11,5.36,6.79,3.87-3.82-1.02-11.4-5.36-6.79M761.78,37.83c-4.22,4.69,1.03,11,5.18,6.96,4.1-3.98-1.09-11.51-5.18-6.96M758.84,72.69c-4.49,4.98,1.37,12.02,5.87,7.21,4.05-4.33-1.43-12.15-5.87-7.21M765.87,90.71c-3.9,5.48,2.73,11.78,6.51,6.56,3.98-5.48-2.92-11.61-6.51-6.56M751.49,55.41c-1.41,1.83-2.81,4.18-.52,7.11,1,1.28,4.1,2.46,6.42-.09,4.43-4.84-1.98-12.11-5.9-7.02M748.5,89.62c-5.5,5.36.92,13.81,6.12,8.9,5.07-4.8-.77-14.07-6.12-8.9M740.81,72.87c-4.92,7.39,2.68,12.87,7.07,7.82,1.75-2.01,2.09-5.99-.06-8.39-2.37-2.63-5.76-1.29-7.01.57M738.76,88.87c-1.09-1.11-2.58-1.83-3.84-1.7-1.6.15-3.44,1.15-4.49,2.66-3.36,4.82-.24,9.83,2.12,10.32,6.87,1.74,10.4-6.97,6.21-11.28M950,236.37c-3.19,2.37-7.13,4.13-11.78,5.31-4.64,1.19-9.54,1.77-14.69,1.77-13.32,0-23.65-3.39-30.93-10.2-7.29-6.8-10.94-16.8-10.94-30v-46.04h-17.3v-25h17.3v-27.28h32.49v27.28h27.91v25h-27.91v45.63c0,4.72,1.21,8.37,3.64,10.94,2.44,2.56,5.87,3.86,10.32,3.86,5.13,0,9.51-1.4,13.12-4.16l8.76,22.9ZM801.95,243.45c-9.31,0-18.41-1.14-27.28-3.44-8.9-2.29-15.98-5.16-21.25-8.63l10.84-23.34c4.99,3.19,11.03,5.79,18.13,7.81,7.08,2.01,14.03,3.03,20.83,3.03,13.73,0,20.62-3.4,20.62-10.2,0-3.19-1.87-5.48-5.62-6.88-3.75-1.38-9.51-2.56-17.3-3.53-9.16-1.4-16.73-3-22.71-4.79-5.96-1.82-11.14-5.01-15.52-9.59-4.38-4.58-6.56-11.11-6.56-19.59,0-7.08,2.05-13.36,6.15-18.85,4.1-5.48,10.07-9.76,17.92-12.81,7.85-3.06,17.11-4.58,27.81-4.58,7.92,0,15.81.86,23.64,2.59,7.85,1.74,14.35,4.13,19.48,7.19l-10.83,23.12c-9.86-5.55-20.62-8.33-32.29-8.33-6.94,0-12.15.97-15.63,2.92-3.47,1.93-5.21,4.44-5.21,7.5,0,3.47,1.87,5.9,5.64,7.3,3.75,1.38,9.71,2.7,17.91,3.95,9.16,1.54,16.66,3.17,22.49,4.9,5.84,1.74,10.91,4.9,15.21,9.48,4.3,4.58,6.45,10.97,6.45,19.16,0,6.94-2.07,13.14-6.24,18.55-4.18,5.42-10.25,9.62-18.24,12.61-7.99,2.98-17.47,4.47-28.44,4.47M642.86,241.79l-.21-87.51-42.91,72.09h-15.21l-42.71-70.21v85.63h-31.67V95.96h27.91l54.59,90.61,53.74-90.61h27.72l.42,145.83h-31.66ZM458.22,191.58h-91.67c.83,11.39,5.21,20.59,13.14,27.59,7.91,7.02,17.91,10.52,29.99,10.52,6.8,0,13.06-1.21,18.76-3.64,5.68-2.43,10.61-6.01,14.78-10.72l8.34,9.57c-4.87,5.84-10.94,10.28-18.24,13.33-7.28,3.06-15.3,4.58-24.06,4.58-11.25,0-21.22-2.38-29.89-7.17-8.68-4.8-15.46-11.43-20.31-19.9-4.85-8.48-7.3-18.07-7.3-28.76s2.33-20.28,6.99-28.74c4.66-8.47,11.03-15.07,19.16-19.79,8.13-4.73,17.27-7.08,27.39-7.08s19.24,2.35,27.3,7.08c8.05,4.72,14.36,11.28,18.96,19.68,4.58,8.4,6.87,18.02,6.87,28.85l-.2,4.59ZM405.3,144.08c-10.55,0-19.4,3.36-26.56,10.11-7.15,6.73-11.2,15.52-12.19,26.35h77.71c-.97-10.83-5.04-19.62-12.19-26.35-7.16-6.74-16.07-10.11-26.78-10.11M296.01,153.67c3.47-7.36,8.65-12.92,15.52-16.67,6.88-3.75,15.38-5.62,25.52-5.62v14.36l-3.53-.2c-11.54,0-20.56,3.54-27.09,10.62-6.53,7.1-9.79,17.02-9.79,29.8v55.83h-14.8v-109.58h14.17v21.46ZM254.83,132.21v109.58h-14.17v-20c-3.89,6.67-9.23,11.85-16.04,15.52-6.8,3.68-14.59,5.51-23.34,5.51-14.3,0-25.6-3.98-33.86-11.97-8.25-7.99-12.38-19.69-12.38-35.11v-63.54h14.78v62.08c0,11.52,2.86,20.28,8.54,26.26,5.7,5.96,13.83,8.96,24.38,8.96,11.52,0,20.62-3.52,27.28-10.53,6.66-7.02,10-16.78,10-29.27v-57.51h14.8Z"/>
</svg>